<svg width="25" height="25" viewBox="0 0 25 25" fill="white" xmlns="http://www.w3.org/2000/svg">
<path d="M12.5 0C19.4035 0 25 5.59644 25 12.5C25 19.4035 19.4035 25 12.5 25C5.59644 25 0 19.4035 0 12.5C0 5.59644 5.59644 0 12.5 0ZM12.5 17.7083C11.6371 17.7083 10.9375 18.4079 10.9375 19.2708C10.9375 20.1337 11.6371 20.8333 12.5 20.8333C13.3629 20.8333 14.0625 20.1337 14.0625 19.2708C14.0625 18.4079 13.3629 17.7083 12.5 17.7083ZM12.5 5.20833C10.1988 5.20833 8.33333 7.07381 8.33333 9.375C8.33333 9.95029 8.79971 10.4167 9.375 10.4167C9.95029 10.4167 10.4167 9.95029 10.4167 9.375C10.4167 8.22442 11.3494 7.29167 12.5 7.29167C13.6506 7.29167 14.5833 8.22442 14.5833 9.375C14.5833 10.147 14.4113 10.5819 13.8208 11.2449L13.5792 11.5053L13.0291 12.0669C11.8995 13.2506 11.4583 14.1031 11.4583 15.625C11.4583 16.2003 11.9247 16.6667 12.5 16.6667C13.0753 16.6667 13.5417 16.2003 13.5417 15.625C13.5417 14.853 13.7137 14.4181 14.3042 13.7551L14.5457 13.4947L15.0959 12.9331C16.2255 11.7494 16.6667 10.8969 16.6667 9.375C16.6667 7.07381 14.8012 5.20833 12.5 5.20833Z"/>
</svg>
