<svg width="36" height="25" viewBox="0 0 36 25" fill="white" xmlns="http://www.w3.org/2000/svg">
<path d="M10.7143 12.5C14.1685 12.5 16.9643 9.70424 16.9643 6.25C16.9643 2.79576 14.1685 0 10.7143 0C7.26005 0 4.46429 2.79576 4.46429 6.25C4.46429 9.70424 7.26005 12.5 10.7143 12.5ZM15 14.2857H14.5368C13.3761 14.8438 12.0871 15.1786 10.7143 15.1786C9.34152 15.1786 8.05804 14.8438 6.89174 14.2857H6.42857C2.87946 14.2857 0 17.1652 0 20.7143V22.3214C0 23.8002 1.19978 25 2.67857 25H18.75C20.2288 25 21.4286 23.8002 21.4286 22.3214V20.7143C21.4286 17.1652 18.5491 14.2857 15 14.2857ZM26.7857 12.5C29.7433 12.5 32.1429 10.1004 32.1429 7.14286C32.1429 4.18527 29.7433 1.78571 26.7857 1.78571C23.8281 1.78571 21.4286 4.18527 21.4286 7.14286C21.4286 10.1004 23.8281 12.5 26.7857 12.5ZM29.4643 14.2857H29.2522C28.4766 14.5536 27.6563 14.7321 26.7857 14.7321C25.9152 14.7321 25.0949 14.5536 24.3192 14.2857H24.1071C22.9688 14.2857 21.9196 14.615 20.9989 15.1451C22.3605 16.6127 23.2143 18.5603 23.2143 20.7143V22.8571C23.2143 22.9799 23.1864 23.0971 23.1808 23.2143H33.0357C34.5145 23.2143 35.7143 22.0145 35.7143 20.5357C35.7143 17.0815 32.9185 14.2857 29.4643 14.2857Z"/>
</svg>
