<svg width="25" height="19" viewBox="0 0 25 19" fill="white" xmlns="http://www.w3.org/2000/svg">
<path d="M21.9152 2.37258C18.8518 -0.067894 15.917 0.000472481 15.917 0.000472481L15.617 0.365282C19.2589 1.52864 20.9513 3.23921 20.9513 3.23921C15.741 0.184839 9.10404 0.206694 3.68451 3.23921C3.68451 3.23921 5.44111 1.4373 9.2972 0.27394L9.08299 0.000192443C9.08299 0.000192443 6.16954 -0.0681746 3.08477 2.3723C3.08477 2.3723 0 8.27986 0 15.5559C0 15.5559 1.79949 18.8403 6.53402 19C6.53402 19 7.32666 17.9964 7.96929 17.1297C5.24848 16.2631 4.22031 14.4612 4.22031 14.4612C5.92954 15.5999 7.65797 16.3127 9.81168 16.7649C13.3159 17.5329 17.6747 16.7433 20.93 14.4612C20.93 14.4612 19.8589 16.3088 17.0525 17.1527C17.6952 17.9966 18.4665 18.9773 18.4665 18.9773C23.2005 18.8179 25 15.5335 25 15.5562C25 8.28014 21.9152 2.37258 21.9152 2.37258ZM8.50456 13.4351C7.30481 13.4351 6.31954 12.3174 6.31954 10.926C6.40717 7.59395 10.6241 7.60432 10.6898 10.926C10.6896 12.3174 9.72563 13.4351 8.50456 13.4351ZM16.3239 13.4351C15.1241 13.4351 14.1388 12.3174 14.1388 10.926C14.2352 7.6004 18.3994 7.599 18.5091 10.926C18.5089 12.3174 17.5449 13.4351 16.3239 13.4351Z"/>
</svg>
