<svg width="25" height="25" viewBox="0 0 25 25" fill="white" xmlns="http://www.w3.org/2000/svg">
<path d="M0.606073 7.22783L11.98 12.3874C12.312 12.5383 12.6875 12.5383 13.0195 12.3874L24.3934 7.22783C25.2015 6.86114 25.2015 5.63996 24.3934 5.27326L13.02 0.113156C12.8569 0.0385921 12.6796 0 12.5002 0C12.3209 0 12.1436 0.0385921 11.9805 0.113156L0.606073 5.27277C-0.202024 5.63947 -0.202024 6.86114 0.606073 7.22783ZM24.3939 11.5383L21.5575 10.2527L13.665 13.8303C13.2959 13.9978 12.9038 14.0827 12.5 14.0827C12.0962 14.0827 11.7046 13.9978 11.335 13.8303L3.44296 10.2527L0.606073 11.5383C-0.202024 11.9045 -0.202024 13.1252 0.606073 13.4914L11.98 18.6472C12.312 18.7975 12.6875 18.7975 13.0195 18.6472L24.3939 13.4914C25.202 13.1252 25.202 11.9045 24.3939 11.5383ZM24.3939 17.7785L21.5683 16.4978L13.665 20.0802C13.2959 20.2477 12.9038 20.3327 12.5 20.3327C12.0962 20.3327 11.7046 20.2477 11.335 20.0802L3.43222 16.4978L0.606073 17.7785C-0.202024 18.1447 -0.202024 19.3654 0.606073 19.7316L11.98 24.8873C12.312 25.0377 12.6875 25.0377 13.0195 24.8873L24.3939 19.7316C25.202 19.3654 25.202 18.1447 24.3939 17.7785Z"/>
</svg>
