<svg width="25" height="26" viewBox="0 0 25 26" fill="white" xmlns="http://www.w3.org/2000/svg">
<path d="M12.4781 0C5.90249 0 0.510311 5.0718 0 11.518L6.71231 14.2918C7.28106 13.9047 7.96773 13.6761 8.70763 13.6761C8.77338 13.6761 8.83808 13.6803 8.90382 13.6824L11.8895 9.35987V9.2983C11.8895 6.69456 14.0059 4.57714 16.6107 4.57714C19.2133 4.57714 21.3318 6.69665 21.3318 9.30143C21.3318 11.9062 19.2133 14.0236 16.6107 14.0236H16.5011L12.2475 17.0615C12.2475 17.1158 12.2516 17.1711 12.2516 17.2274C12.2516 19.1841 10.6706 20.7714 8.71389 20.7714C7.00764 20.7714 5.56645 19.5473 5.23773 17.9256L0.432042 15.9355C1.92019 21.192 6.7457 25.0459 12.4781 25.0459C19.3939 25.0459 25 19.4388 25 12.523C25 5.60715 19.3928 0 12.4781 0ZM7.84563 19.0036L6.30844 18.367C6.58186 18.9337 7.05356 19.4095 7.6797 19.6715C9.03323 20.234 10.5944 19.5922 11.1569 18.2366C11.4314 17.5791 11.4324 16.8601 11.1621 16.2026C10.8918 15.5452 10.3794 15.0328 9.72512 14.7593C9.07393 14.488 8.3789 14.4995 7.76528 14.728L9.35465 15.3855C10.3523 15.8029 10.8251 16.9509 10.4076 17.9475C9.99332 18.9462 8.84434 19.4189 7.84563 19.0036ZM19.7581 9.29517C19.7581 7.56074 18.3461 6.14877 16.6117 6.14877C14.8741 6.14877 13.4653 7.56074 13.4653 9.29517C13.4653 11.0327 14.8741 12.4416 16.6117 12.4416C18.3472 12.4416 19.7581 11.0327 19.7581 9.29517ZM14.2553 9.28995C14.2553 7.98339 15.3124 6.9252 16.619 6.9252C17.9224 6.9252 18.9838 7.98339 18.9838 9.28995C18.9838 10.5955 17.9224 11.6537 16.619 11.6537C15.3114 11.6537 14.2553 10.5955 14.2553 9.28995Z"/>
</svg>
